<?xml version="1.0" standalone="no"?>
<!DOCTYPE svg PUBLIC "-//W3C//DTD SVG 20010904//EN"
 "http://www.w3.org/TR/2001/REC-SVG-20010904/DTD/svg10.dtd">
<svg version="1.0" xmlns="http://www.w3.org/2000/svg"
 width="256.000000pt" height="256.000000pt" viewBox="0 0 256.000000 256.000000"
 preserveAspectRatio="xMidYMid meet">

<g transform="translate(0.000000,256.000000) scale(0.100000,-0.100000)"
fill="#000000" stroke="none">
<path d="M1010 2420 c-98 -13 -233 -55 -334 -105 -154 -77 -281 -184 -388
-327 -28 -38 -56 -68 -62 -68 -6 0 -22 9 -36 20 -27 21 -55 26 -65 11 -8 -13
14 -61 43 -92 l24 -27 -22 -48 c-66 -146 -99 -357 -82 -513 28 -246 126 -461
288 -631 186 -195 406 -305 659 -328 103 -10 247 -4 330 14 48 10 171 51 204
68 l30 16 -1 -41 c0 -36 6 -47 47 -89 27 -27 70 -58 97 -70 l50 -21 33 23 c19
12 38 32 43 43 10 20 10 20 17 0 21 -63 35 -81 76 -102 70 -35 120 -39 187
-15 31 11 75 25 97 32 72 19 99 94 104 281 1 21 9 30 39 42 103 41 121 193 31
259 -14 11 -47 22 -75 26 -55 8 -57 3 28 73 50 41 76 115 55 156 -19 35 -53
66 -92 84 -28 13 -30 18 -30 65 0 62 -15 82 -65 90 l-37 6 -6 162 c-5 180 -22
254 -92 401 -34 71 -38 89 -41 173 -2 51 -6 98 -9 103 -11 17 -38 9 -67 -18
l-27 -26 -89 84 c-189 180 -428 282 -685 293 -62 3 -141 1 -177 -4z m302 -34
c192 -31 372 -118 531 -257 71 -63 95 -95 79 -111 -9 -9 -28 4 -74 51 -193
195 -436 296 -708 295 -162 0 -274 -26 -425 -99 -166 -81 -284 -184 -420 -370
-22 -30 -39 -1 -20 34 29 53 144 178 222 241 231 186 523 263 815 216z m714
-356 c-13 -27 -13 -30 0 -20 21 18 29 5 16 -25 -10 -21 -9 -25 3 -25 43 0 -20
-91 -108 -156 -34 -26 -52 -43 -39 -40 27 9 30 -9 5 -37 -10 -10 -18 -26 -18
-35 0 -9 -14 -26 -32 -37 -21 -13 -30 -26 -27 -36 3 -10 -7 -26 -24 -41 -16
-13 -27 -29 -25 -35 4 -11 -14 -33 -50 -58 -18 -13 -19 -17 -8 -24 11 -7 9
-14 -12 -34 -15 -13 -27 -30 -27 -37 0 -19 -30 -50 -48 -50 -11 0 -12 -3 -2
-15 9 -11 8 -20 -6 -45 -10 -16 -26 -30 -35 -30 -12 0 -16 -6 -12 -18 7 -27
-54 -77 -73 -61 -11 9 -14 8 -14 -5 0 -13 -10 -16 -49 -16 -28 0 -52 3 -55 8
-2 4 -9 43 -15 87 -8 58 -20 93 -41 128 -17 27 -30 53 -30 58 0 15 40 89 68
129 64 88 221 219 377 315 44 27 96 61 116 75 20 14 47 32 60 40 12 8 41 32
63 52 46 42 66 36 42 -12z m-1826 -122 c46 -32 197 -106 265 -128 56 -18 98
-47 190 -131 65 -58 195 -151 300 -214 16 -10 16 -14 -1 -70 -9 -33 -20 -87
-23 -119 -6 -57 -7 -59 -24 -42 -9 10 -15 22 -12 27 4 5 -5 9 -20 9 -15 0 -28
7 -32 18 -4 9 -18 25 -31 36 -13 10 -21 24 -18 31 2 7 -6 23 -20 36 -13 12
-24 28 -24 36 0 7 -5 13 -10 13 -6 0 -15 11 -21 24 -7 14 -22 27 -35 30 -22 6
-26 12 -23 32 0 4 -17 17 -38 29 -21 12 -37 27 -35 34 1 7 -17 21 -41 31 -41
18 -84 54 -81 69 1 3 -21 14 -48 25 -28 10 -52 26 -55 35 -2 9 -22 26 -44 39
-22 13 -39 30 -39 40 0 11 -15 25 -40 36 -22 9 -53 34 -70 54 -50 61 -37 70
30 20z m1874 -87 c71 -140 106 -290 106 -457 0 -98 -2 -115 -17 -123 -17 -8
-18 1 -19 127 -1 116 -5 152 -28 235 -14 55 -42 131 -61 170 -24 52 -31 75
-23 84 15 18 15 18 42 -36z m-1838 -15 c3 -7 -6 -38 -19 -68 -76 -171 -94
-423 -44 -610 27 -101 85 -235 130 -301 148 -216 356 -366 602 -433 87 -24
119 -27 240 -27 121 0 153 3 237 27 53 14 127 40 164 56 37 17 69 28 73 25 27
-27 -116 -93 -269 -124 -339 -69 -682 34 -930 279 -247 244 -354 586 -291 931
11 57 33 138 50 179 17 41 31 76 31 78 0 9 22 -1 26 -12z m1001 -296 c37 -22
58 -82 47 -133 -10 -49 -23 -59 -63 -52 l-34 7 31 -27 c40 -34 58 -27 72 24
17 63 26 55 59 -48 6 -19 12 -86 12 -150 1 -66 4 -101 8 -81 6 34 7 32 31 -47
22 -73 28 -82 52 -87 17 -3 26 -10 23 -18 -7 -17 -88 -68 -108 -68 -9 0 -19
-5 -23 -11 -15 -25 64 4 126 46 103 69 170 96 256 102 44 4 79 2 82 -4 4 -5
38 -15 76 -22 64 -11 116 -34 116 -51 0 -4 -26 -13 -57 -20 -32 -7 -70 -19
-85 -26 -26 -14 -28 -13 -28 7 0 12 -5 39 -12 60 l-11 39 -58 0 c-64 0 -159
-31 -227 -74 -55 -34 -64 -50 -23 -41 70 15 132 7 198 -25 82 -41 94 -66 61
-130 -20 -40 -23 -62 -26 -194 -2 -81 0 -152 5 -157 5 -5 7 45 5 119 -4 116
-2 132 20 186 13 33 30 62 37 64 25 8 161 -146 290 -329 l23 -34 -6 29 c-8 32
-30 64 -124 179 -36 43 -61 81 -57 85 3 4 66 8 138 9 73 1 151 2 175 2 32 1
42 5 42 17 0 13 -5 15 -22 8 -13 -4 -97 -10 -188 -13 l-165 -6 -58 48 c-68 57
-76 72 -51 93 26 21 118 62 167 75 23 6 69 22 102 36 50 21 69 24 120 19 72
-7 106 -35 107 -86 1 -38 -22 -60 -64 -60 -15 0 -28 -4 -28 -9 0 -5 34 -7 78
-4 60 4 85 2 109 -11 77 -39 95 -123 43 -194 -37 -52 -69 -61 -130 -38 -68 26
-120 39 -127 32 -11 -10 3 -17 68 -32 34 -8 69 -19 76 -25 9 -8 12 -37 9 -108
-3 -82 -7 -103 -30 -143 -23 -40 -33 -48 -64 -53 -20 -3 -56 -15 -80 -26 -60
-27 -117 -24 -177 9 -54 29 -60 43 -88 181 -8 36 -18 66 -24 68 -6 2 -6 -12 0
-45 12 -58 5 -90 -27 -125 -44 -47 -102 -31 -180 49 -45 46 -52 73 -32 112 9
17 21 63 27 104 13 86 39 157 75 204 14 18 23 37 20 42 -3 6 -28 22 -56 36
-41 21 -63 26 -124 26 -42 0 -97 -7 -123 -16 -26 -8 -60 -19 -74 -23 -22 -8
-27 -5 -36 20 -9 24 -8 33 10 55 l20 27 -21 -12 c-24 -13 -56 -2 -65 21 -3 7
-6 3 -6 -9 -1 -28 -21 -35 -44 -15 -26 23 -32 7 -7 -18 23 -23 18 -36 -14 -42
-11 -1 -21 -9 -24 -17 -3 -8 0 -11 6 -7 5 3 13 -1 16 -10 5 -13 0 -15 -31 -10
-21 3 -65 8 -98 11 -33 4 -96 14 -140 25 -44 10 -111 21 -150 25 -38 3 -87 10
-109 15 -47 10 -112 -7 -211 -57 l-69 -36 -38 44 c-21 24 -38 49 -38 56 0 7
19 17 43 23 23 6 62 18 87 25 91 29 137 33 218 18 42 -8 111 -20 152 -28 41
-7 102 -24 135 -38 72 -30 245 -50 211 -25 -14 11 -17 22 -12 41 5 22 2 29
-21 41 -44 23 -118 106 -149 166 -26 50 -28 64 -28 165 0 102 2 115 28 164 59
113 170 162 253 111z m1038 -304 c10 -14 15 -40 13 -67 -3 -41 -1 -44 37 -65
50 -28 95 -74 95 -97 0 -39 -65 -135 -92 -137 -3 0 -16 15 -27 34 -35 56 -128
79 -211 51 -27 -9 -60 -15 -72 -13 -20 3 -18 6 17 22 29 14 76 20 167 25 113
6 150 12 137 25 -2 2 -24 0 -49 -4 -61 -12 -180 -12 -180 -1 0 6 8 16 18 23
25 19 62 68 62 84 0 24 -17 15 -29 -14 -23 -54 -83 -110 -130 -121 -61 -13
-111 -4 -111 21 0 22 16 56 37 76 7 7 13 21 12 30 0 14 -2 14 -6 2 -3 -8 -12
-23 -20 -32 -8 -9 -22 -32 -31 -50 -12 -22 -25 -34 -42 -36 -63 -6 -62 33 1
101 22 23 49 59 60 80 32 61 119 77 119 23 0 -23 2 -23 67 20 80 53 132 59
158 20z m-971 -363 c7 -18 -9 -33 -36 -33 -21 0 -22 4 -8 31 13 23 36 25 44 2z
m349 -54 c32 -14 36 -39 7 -46 -11 -3 -20 -14 -20 -24 0 -10 -13 -25 -30 -34
-16 -9 -30 -19 -30 -24 0 -4 -12 -14 -27 -21 -16 -8 -36 -21 -45 -28 -10 -8
-25 -12 -35 -10 -10 3 -25 -2 -32 -9 -8 -9 -25 -13 -42 -11 -16 3 -29 1 -29
-3 0 -13 -44 -18 -59 -6 -11 9 -15 9 -18 0 -6 -16 -63 -17 -63 -2 0 7 -9 9
-22 6 -12 -4 -36 0 -52 7 -17 7 -43 18 -58 24 -35 14 -35 27 -2 92 25 50 27
52 60 45 45 -8 74 2 74 25 0 13 7 17 25 16 14 0 23 -6 21 -12 -8 -20 11 -37
30 -29 18 8 18 8 2 12 -22 5 -23 19 -3 27 8 3 15 1 15 -3 0 -18 33 -20 103 -4
39 8 79 20 87 25 19 11 107 4 143 -13z"/>
<path d="M1714 1774 c-28 -31 -27 -45 3 -26 10 6 38 63 30 61 -1 0 -16 -16
-33 -35z"/>
<path d="M1645 1631 c-3 -11 -15 -23 -26 -26 -18 -6 -27 -25 -11 -25 14 0 52
40 52 55 0 21 -8 19 -15 -4z"/>
<path d="M1523 1574 c-17 -19 -26 -34 -19 -34 19 0 43 23 51 48 8 27 7 27 -32
-14z"/>
<path d="M1536 1457 c-16 -15 -26 -30 -22 -34 8 -9 60 42 55 53 -2 5 -17 -3
-33 -19z"/>
<path d="M1438 1419 c-33 -31 -36 -44 -8 -29 18 10 46 49 38 54 -2 1 -15 -11
-30 -25z"/>
<path d="M1461 1310 c-35 -34 -40 -45 -12 -31 16 9 57 61 48 61 -2 0 -18 -14
-36 -30z"/>
<path d="M549 1671 c9 -16 51 -37 51 -24 0 7 -44 42 -53 43 -4 0 -3 -8 2 -19z"/>
<path d="M660 1576 c0 -11 33 -36 47 -36 11 0 8 6 -10 20 -24 19 -37 25 -37
16z"/>
<path d="M760 1493 c0 -17 29 -43 48 -43 14 1 14 3 -3 12 -11 6 -25 19 -32 27
-7 10 -12 11 -13 4z"/>
<path d="M850 1407 c0 -22 23 -47 43 -46 14 0 17 2 7 6 -8 3 -23 15 -32 27
-10 11 -18 17 -18 13z"/>
<path d="M1155 1420 c-3 -5 3 -10 15 -10 12 0 18 5 15 10 -3 6 -10 10 -15 10
-5 0 -12 -4 -15 -10z"/>
<path d="M1240 750 c0 -5 5 -10 11 -10 5 0 7 5 4 10 -3 6 -8 10 -11 10 -2 0
-4 -4 -4 -10z"/>
</g>
</svg>
