<svg version="1.0" xmlns="http://www.w3.org/2000/svg" viewBox="0 0 512 512">
  <rect width="100%" height="100%" fill="white" />
  <path d="M204.6 7.6c-53.5 7.2-94.3 26.5-132 62.4-8.6 8.2-21.8 23.9-28.5 33.7-6.2 9.3-7.9 9.8-17.2 5.7-6.5-2.9-10.1-2.7-12 .8-1 1.8-.4 4.5 3.7 16.3l4.8 14.2-4.1 10.9C6.3 186.7 2.1 226.2 7.5 262c9.3 60.9 41.9 114.2 91.8 150.1 29.4 21.1 66.1 35 105.2 39.9 14.7 1.9 40 1.4 56.1-.9 15.5-2.3 34.1-7.1 47.9-12.4 5-1.9 9.5-3.2 10.2-3 1.7.7 4.3 7.8 4.3 12.1 0 5 2 7.8 14.2 20.3C350 481.3 359 488 363.5 488c3.8 0 12.9-6.5 14.7-10.5 2.8-6.2 6.9-2.8 9.8 8.2 1.2 4.5 2.8 8.7 3.5 9.3.7.6 6.9 2 13.7 3.1 6.7 1.2 14.6 3 17.3 4 6.6 2.5 7 2.5 15.1-1.6 9.2-4.7 18.6-7.7 25.9-8.4l6-.6 3.1-6c1.7-3.3 5.3-7.8 7.9-10l4.7-4.1-1.2-7.7c-.7-4.2-1.1-11.3-.8-15.9.5-10 2.7-14.7 12.3-25.8 7.3-8.5 11.1-15 13.1-22.4 3.1-11.6.4-22.1-6.3-24.7-1.4-.5-3.8-4.1-6.8-10l-4.6-9.2 2.3-4.6c1.3-2.5 4.8-9.2 7.7-14.9 5.9-11.5 7.1-16.4 4.8-20.8-1.9-3.6-11-12.1-16.4-15.3-5.4-3.1-8.3-8.4-8.3-14.9 0-2.8-.5-6.3-1.1-7.8-1.7-4.5-9.8-13.3-17.6-19.1-4-2.9-7.8-6.3-8.4-7.5-.8-1.4-1.3-9.4-1.4-22.7-.3-30.1-4.1-50.8-14.1-77.3-10.7-28.4-11.5-31.5-12.3-44.4-.8-14-2-16.7-7.9-18.5-3-.8-5.2-.8-9.3 0l-5.4 1.2L393.2 78c-35.9-38.2-81.5-62.1-132.7-69.6-15.1-2.2-42.8-2.6-55.9-.8zM248 18.1c31.2 2.8 65.7 13.9 91.9 29.5 18.2 10.8 48.8 36.8 54.3 46.1 4.4 7.5 5.1 8 9.3 6 7-3.3 9.9-1.7 6.6 3.7-1.9 3-1.9 3.4-.5 4 .8.3 2.7.6 4 .6 2.8 0 2.8.1 1.3 3.4-.9 1.9-.9 3.2 0 5.4 1 2.3 1 3.4.1 4.8-.9 1.6 0 4.2 5.9 15.7 18.6 36.4 25.9 82.6 19.6 124.2-1.3 8.9-1.8 10.3-4.5 12.7-6.3 5.8-7 3.7-4.6-14.3 5.8-42.5-.2-81.3-18.5-118.7-3.3-6.7-6.4-12.2-6.9-12.2s-1.7 1.5-2.8 3.2c-3.1 5-6.7 7.9-18.2 14.8-5.8 3.4-10.7 6.4-10.9 6.6-.2.2.4 1.5 1.3 2.9 2 3.1 1.4 4.2-4.2 7.7-5.6 3.4-1.9 3.3 4.2-.1 6.1-3.5 12.3-4.2 13.3-1.4.6 1.6-.9 3.2-8.7 9.1-2.1 1.7-3.2 3.5-3.7 6.4-.6 4.3-5.6 10.1-13.6 16.1-4.1 3.1-5 4.6-6.7 11.5-.6 2.4-2.6 6-4.5 8-1.8 2.1-6.3 10.2-9.9 18.1-7.6 16.6-10.1 21-15.1 26.8-3.7 4.4-7 5.4-9.3 3.1-2.2-2.2-2.4 0-.2 3 2.8 3.8 2.1 6-3.4 10.6-6.6 5.4-8.6 6-12.9 4.3-4.1-1.8-4.7-1.4-4.7 2.4 0 5.3-6.5 7.4-13.5 4.5-4.3-1.8-6-5.2-7.5-15.1-1.3-7.9-6-19.5-8-19.5-1.4 0-1.3 2.7.2 5.3.7 1.3 1.6 11.5 2.2 25.7 1.1 22.4 1.2 23.5 3.2 24.5 4.4 2.2 5.2 3.7 6.9 12.8 2.4 13.5 3.1 15.3 6.9 17.1 3.5 1.6 5.3 4.3 3.9 5.7-.9.8-30.8 10.9-32.3 10.9-.5 0-2.2-1.7-3.7-3.7-2.7-3.5-2.8-4-2.5-14.1.3-10.8-.4-13.2-3.8-13.2-2.6 0-3.1 2.4-1.9 8.2 1.4 6.5.6 17.5-1.4 19.5-2.1 2.1-5.7.8-5.7-2 0-1.2.5-3.9 1.1-6 1.3-5 .4-7.7-2.6-7.7-3.5 0-4.7 3-3.9 10 .6 5.9.6 6-2.5 7.7-3.7 2.2-3.9 3.5-.6 5.7 3.1 2 3.2 3.6.3 3.6-1.1 0-5.7.7-10.1 1.6-8.5 1.7-15.5 1.4-47.7-2.1-7.4-.8-16.6-1.5-20.5-1.5-13.5 0-37.1 2.2-50.4 4.7-11.2 2.1-14 2.3-17.2 1.4-4.4-1.3-8.6-6.1-9.5-11-.6-2.8-.2-3.6 3.8-7.5 8.1-7.7 18.9-11.6 32.6-11.6 4.6 0 18.3 1.1 30.5 2.6 17.7 2 24.2 3.2 32.6 5.9 5.8 1.9 14.7 3.9 19.6 4.5 5 .5 12.8 1.7 17.5 2.5 11.1 2 13 1.9 13-.3 0-7.3-7.6-19.4-21.8-34.4-6.3-6.8-11.1-12.9-12.8-16.5-2.7-5.5-2.8-6.3-2.5-17.8.6-21.2.6-22.4-.5-23.5-.9-.9-1.6-.3-2.8 2.1-2 4-2 5.3 0 8.5 2.1 3.1.7 6.8-3 8.5-5.2 2.4-7.4-1.5-3.6-6.4 1.1-1.4 2-2.8 2-3.1 0-1.1-3.7-.6-7.1.8-5.3 2.2-8.2.5-10.4-5.8-.7-2.1-2-3.3-4.5-4.1-2.9-1-3.5-1.7-3.5-4.1 0-2.7.6-3.1 8.6-6.4 9.8-3.9 11.9-5.4 11.9-8.2 0-3.4-2.9-3.1-12 1.1-12.1 5.6-14.6 5.4-12.1-1.2.9-2.2.6-2.6-3-4-3.1-1.2-3.9-2.1-3.9-4 0-2.7 5.2-8 8.9-9.2 3-.9 2.6-3.3-.6-4.1-1.9-.5-3.8-.1-6.4 1.4-2.1 1.2-5.4 2.2-7.3 2.2-2.9 0-4-.7-6.3-3.6-1.5-2.1-4.3-4.3-6.1-5.1-2.9-1.2-3.2-1.6-2.1-2.9.7-.9 3.5-2.7 6.1-4 5.7-2.9 6.7-4.7 4.3-7.4-2.5-2.7-4.6-2.5-10.6 1.1l-5.1 3.2-4.1-4.1c-2.3-2.2-6.6-5.2-9.5-6.6-9.1-4.6-8.3-7.3 2.6-8.5 7.9-.8 9.1-1.4 7.6-3.9-.9-1.4-3.4-1.8-16.6-2.2-16.5-.5-20.8-1.8-20.8-6 0-1.6.9-2.1 5-2.6 5.7-.7 8.2-2.7 5.3-4.2-1-.5-5.8-1.7-10.8-2.6-18.9-3.6-21.7-5-21.9-10.9-.1-3-.5-3.3-6.3-5.4l-6.2-2.2-2.2 4.7c-11.1 24.9-18.1 62.5-16.4 89.7 4.5 76.8 48.1 142.6 116 175.1 56.8 27.2 121.8 27 178.1-.5 14.2-7 18.1-10.7 21.3-20.2 2.2-6.6 3.3-8.6 8.9-15.9 3.7-4.9 3.9-6.1 1.5-8.2-2.6-2.2-14-6.5-20.5-7.7-6.7-1.2-19-5.9-27.3-10.4-5.6-3-6-3.4-5.8-6.6.3-6.9 6.3-11.5 19.7-15.1 10.4-2.9 34.1-6.9 44.3-7.7 9.2-.7 10-1.2 12.6-8.3.9-2.5 4.2-7.4 7.3-10.9 3-3.5 8.2-10.3 11.3-15 3.2-4.7 7.2-10.1 8.9-11.9 5.3-5.7 10.1-3.7 12.8 5.4 2.4 8.3 2 8.4 21.3-3.4 10.7-6.6 13-7.6 17-7.6 5.7.1 10.6 2.5 13.2 6.7 1.7 2.7 1.9 4.2 1.3 10-.8 8.7.3 10.4 10.3 15.3 4.3 2.2 10 6 12.7 8.6l4.9 4.7-.5 7.5c-.4 6.1-1.1 8.5-3.4 12.2-3 4.9-6.3 7.8-10 8.8-1.6.5-3.5-.5-7.5-3.9-6.8-5.8-13.4-8.9-24.6-11.6-11.1-2.6-13.3-3.5-13.3-5.3 0-4.2 4.5-4.6 25.6-2.1 13.3 1.5 15.4 1.3 15.4-1.6 0-2.3.5-2.2-14.5-1.9-16.7.3-29.5-2.1-29.5-5.4 0-.8 3.4-5.1 7.5-9.7 4.1-4.5 7.5-8.9 7.5-9.6 0-2.1-1.7-.8-12.5 9.4-6.1 5.8-11.1 9.6-13.4 10.3-2 .7-5 1.8-6.8 2.6-3.2 1.4-11 1.8-15 .8-3.3-.9-2.9-4 1.3-10.3 2.6-3.8 3.4-5.9 3-7.7-1.1-4.1-3.3-2.7-8.2 5.3-7.2 11.8-14 18.3-19.1 18.3-3.1 0-5 1.7-3.6 3.1 1 1 2.4 1 6.6-.1 4.3-1 6.2-1 9.1 0 4.2 1.3 7 4.9 6 7.5-1 2.4-15.1 11.5-18.1 11.5-3 0-4.3-3.2-4.3-10.5 0-3.9-.4-5.4-1.6-5.9-3.2-1.2-15.1-.5-23.4 1.4-4.7 1.1-10.1 2-12 2-7.5 0-34 8.9-34 11.3 0 2.5 6.9 5.7 17.3 8.1 13.6 3.2 30.5 9.8 36 14 2.6 1.9 5.3 5.5 7.2 9.1 3.5 6.8 3.5 6.8 2.2 45.5-.7 21.1-.6 24.8.7 26.5 1.1 1.6 1.7 1.7 2.7.8.9-.9 1.2-9 1-32.8-.3-36.1-.5-35.2 7.8-29.1 7.5 5.5 15.9 15.1 26.7 30.3C419.1 438 431.9 455 433 455c1.6 0 1.2-2.1-1.5-7.8-3.3-7.2-9.2-15.2-23.8-32.2-13.7-16-13.4-15-4.7-18.4 3.6-1.5 9.1-2 28-2.6 24-.8 29.8-1.7 35.7-5.6l2.6-1.7-2.6-1.4c-2.1-1-3.6-1.1-6.5-.3-7 1.8-14.1 2.9-32.3 5-29.2 3.4-36.5 1.6-55.1-13.5-4.1-3.3-8.8-6.9-10.4-8.1-2.8-2-2.8-2.2-1.4-4.9.8-1.6 4.4-4.9 7.9-7.4s9.1-6.9 12.3-9.6c9.3-7.8 13.7-10.4 18.7-11 2.5-.3 9-1.5 14.3-2.6 7.8-1.7 12.6-2 25.5-1.7 15.8.3 16 .3 19.7 3.2 7.8 5.9 10.2 13.4 6.5 20.4-2.4 4.6-5.1 6.3-12.4 7.9-3.6.7-4 1.1-4 3.8 0 2.8.3 3 3.8 3.3 2.1.2 7.6-.4 12.3-1.3 9.5-1.9 13.4-1.5 20.5 2 9.4 4.8 13.5 12.9 12.6 25.4-.6 9.5-3.2 15.9-7.8 19.2-4.5 3.2-12.9 3.2-21.4 0-9.4-3.5-14.9-4.9-20.6-5.3-4.3-.2-5.4 0-5.7 1.3-.6 3 2.6 4.7 12.5 6.9 5.4 1.2 11.2 2.8 13 3.5 5.7 2.5 6.1 4.2 6.4 24l.2 18-5.7 8.5c-6.4 9.5-8.2 10.9-14.4 11-2.7 0-5.9.9-8.5 2.4-5.3 3-18 6.6-23.5 6.6-6.2 0-21-5.4-24.8-9.1-3.7-3.6-5-7.6-7.4-22.4-2.7-16.3-7.1-26.5-11.4-26.5-2.5 0-2.8 3.7-1.5 16.3 1.1 11.3 1.1 12.6-.6 16.1-1.7 3.6-10.9 11.6-13.4 11.6-4.8 0-20-11.3-27.5-20.6-5.4-6.6-5.6-8-2.1-19.9 2.7-9.4 5.9-24.4 5.3-25-.2-.2-2.8 1.2-5.8 3.1-32.1 20.5-81.8 31.6-123.5 27.5-52.4-5.2-96.4-25.9-133.5-63.1-25.2-25.1-42.6-54.3-52.4-87.7-14-47.5-12.3-93.4 5-138.1 6.2-15.9 6.2-15.8 2-23.8-1.9-3.7-3.3-7.1-3-7.6.8-1.3 5.9-.9 8.9.6 1.5.8 3.3 1.2 4 1 .7-.3 4.4-5.3 8.1-11.2C69.1 82.9 96.3 58.7 131 41.1c36.9-18.9 76.8-26.7 117-23zm159 119.1c0 2.3-10.7 11.3-18.4 15.5-6.2 3.4-8.2 4-9.7 3.2-1.1-.5-1.9-1.3-1.9-1.7 0-.9 27.1-18.1 28.8-18.1.6-.1 1.2.4 1.2 1.1zm15 183.3c4 2.1 5.3 4.7 3.6 7.1-1.2 1.5-1.8 1.6-3.9.7-2.2-1-2.9-.9-5.2 1.3-4.6 4.2-14.8 2.9-17.6-2.3-1.5-2.7-.5-3.9 4.1-4.8 1.4-.3 4.3-1.2 6.5-1.9 5.5-1.9 9.1-1.9 12.5-.1zm-113.5 42.2c10.2 5.1 18.1 9.7 18.3 10.6.4 1.9-11.4 11.9-13.6 11.5-.9-.2-3.4-2.9-5.5-6.1-2-3.1-4.2-5.7-4.7-5.7-2 0-2 2.2-.1 5.4 2.3 3.7 2.8 10.5.9 12.4-.7.7-3.1 1.2-5.4 1.2-3.3 0-4.5.5-5.8 2.5-2.2 3.3-4.6 3.2-7.8-.5-2.9-3.3-5.5-4.1-4.3-1.3 1.8 4 1.7 8.4 0 10.3-2.4 2.7-5.1 2.5-8.8-.6l-3.1-2.6-1.8 2.3c-3.4 4.5-3.9 4.9-6.2 4.9-3.1 0-4.4-1.7-5.2-6.9-.4-2.3-1.6-5.2-2.6-6.4-1.8-2-1.9-2-1.2-.2 1.8 4.8 1.6 9-.6 11.3-2.7 2.9-5.4 2.8-7.8-.3-2.4-3-3.8-3.2-5.2-.4-1.7 3-5.9 2.1-8.6-1.9l-2.2-3.2-1.1 3c-2.5 7.4-11.1 3.9-11.1-4.5 0-2.8-2.6-3.4-5.9-1.3-2.7 1.7-6.8-.4-7.7-3.7-1-3.9 2.2-10.9 7.7-16.9 5.7-6.3 10-8.6 16.1-8.6 2.3 0 7-.7 10.4-1.5 3.4-.8 12.2-2.5 19.6-3.9 8.8-1.6 16-3.5 20.4-5.5 5-2.3 8-3 10.9-2.8 2.5.3 10.8 3.8 22 9.4z"/>
  <path d="M211 27.7c-26.7 2.7-51.7 10.1-77.1 22.9-25.3 12.6-50.8 33.7-67.1 55.4C60 115 50 130.8 50 132.5c0 1.6 7.7 8.4 11.8 10.3 2.6 1.3 3.2 2.1 2.7 3.7-1.5 5-1.6 5 9 5.5 9 .5 11 1 20.7 5.2 5.8 2.5 13.7 6.6 17.5 9.2 6.8 4.6 8.9 6.4 29.3 25.6 12.2 11.5 18 15.8 34.3 25.7 11.9 7.2 14.7 10.3 14.7 16.8 0 2.2.4 4.6.9 5.4 1 1.6 3.1.6 3.1-1.4 0-.7 2.2-4.7 5-8.8 5.5-8.3 14.1-15.9 22.9-20.3 5.1-2.6 6.6-2.9 15.8-2.9 9.4 0 10.3.2 12.8 2.5 1.5 1.4 3.3 3.8 4.2 5.3 1.7 3.3 4.3 16.3 4.3 21.3 0 2.2.6 3.7 1.5 4 3 1.2 4.2-1.4 4.7-10.4.4-6.9 1.1-9.9 3.3-14.2 9.3-18.4 27.5-37.2 51-52.7 7.2-4.7 14.8-10.5 17.1-12.7 2.2-2.3 8.5-6.8 14-10 5.4-3.2 12.4-7.8 15.4-10.1s6.3-4.5 7.4-4.9c1.5-.5 1.7-.3 1.1 1.6-1.4 4.5-1.7 7.6-.7 8.2 1.1.7 21.7-16.6 22.6-19.1 1-2.5-.1-2.7-3-.4-3 2.4-3.3 2.4-5.3 1.2-1.2-.8-1-1.6 1.3-5.1l2.7-4.1-3-3.7c-3.9-4.9-24-24.5-31.6-30.9-22.3-18.7-58.6-35.5-89.3-41.3-18.2-3.4-42.6-4.8-57.2-3.3zM387.4 131.6c-6.5 4.2-12.9 8.6-14.1 9.7-2.7 2.4-3 5.2-.7 6.1 2 .8 4.5-.8 11.1-6.7 2.7-2.3 7.6-6.4 11.1-9.1 5.5-4.3 7.8-7.6 5.4-7.6-.5 0-6.2 3.4-12.8 7.6z"/>
  <path d="M344.6 155.2c-2.5 3.5-2.1 6.8.8 6.8 3.1 0 4.8-2.2 4.4-5.7-.4-3.5-3.1-4.1-5.2-1.1zM366.2 177.3c-2 2.1-2.9 4.7-1.7 4.7 1.9 0 8.6-4.3 8.2-5.3-.7-2.2-4.2-1.8-6.5.6zM328.3 180.6c-.3.9-.6 3.2-.7 5.2-.1 3 .3 3.7 1.9 3.7 2.2 0 5.1-6.4 4.2-9-.8-2-4.6-1.9-5.4.1zM305.2 194.2c-1.7 1.7-1.5 7.5.3 8.2 1.5.5 5.5-2.5 5.5-4.2 0-1.1-3-5.2-3.9-5.2-.4 0-1.2.5-1.9 1.2zM312.8 213.9c-3.3 5.8-3.6 9.1-.9 9.1 2.5 0 7.1-5.5 7.1-8.5 0-6.8-2.6-7.1-6.2-.6zM289.5 226.5c-4.2 6.6-4.5 9.5-1.2 9.5 2.9 0 7.4-4.6 8.6-8.8.7-2.4.6-3.4-.8-4.6-1-.9-2-1.6-2.4-1.6-.4 0-2.2 2.5-4.2 5.5zM234.2 230.7c.2 1 1 1.8 1.8 1.8 2.2 0 1.8-2.9-.3-3.3-1.4-.3-1.8.1-1.5 1.5zM232.1 246.9c-.7.5-1.1 1.3-.8 1.8.3.4 5.3 3.3 11.2 6.3l10.6 5.5 2-2.4c1.2-1.5 1.9-3.9 1.9-6.8 0-5 .5-4.9-8.7-2.2-3.9 1.2-4.7 1.1-8.8-.9-5.1-2.5-5.4-2.5-7.4-1.3zM292 251.1c-4.3 4.4-5.2 7.9-2.2 7.9 2.4 0 4.4-1.7 7.6-6.5 3.1-4.8 3.2-5.5.6-5.5-1.1 0-3.8 1.9-6 4.1z"/>
</svg>
